<mxfile host="app.diagrams.net" agent="Mozilla/5.0 (Windows NT 10.0; Win64; x64) AppleWebKit/537.36 (KHTML, like Gecko) Chrome/127.0.0.0 Safari/537.36 Edg/127.0.0.0" version="24.7.7">
  <diagram id="C5RBs43oDa-KdzZeNtuy" name="Page-1">
    <mxGraphModel dx="1426" dy="791" grid="1" gridSize="10" guides="1" tooltips="1" connect="1" arrows="1" fold="1" page="1" pageScale="1" pageWidth="827" pageHeight="1169" math="0" shadow="0">
      <root>
        <mxCell id="WIyWlLk6GJQsqaUBKTNV-0" />
        <mxCell id="WIyWlLk6GJQsqaUBKTNV-1" parent="WIyWlLk6GJQsqaUBKTNV-0" />
        <mxCell id="5vmBIqlByH16wtoZsaLm-16" value="" style="edgeStyle=orthogonalEdgeStyle;rounded=0;orthogonalLoop=1;jettySize=auto;html=1;" edge="1" parent="WIyWlLk6GJQsqaUBKTNV-1" source="5vmBIqlByH16wtoZsaLm-12" target="5vmBIqlByH16wtoZsaLm-15">
          <mxGeometry relative="1" as="geometry" />
        </mxCell>
        <mxCell id="5vmBIqlByH16wtoZsaLm-12" value="&lt;b&gt;Start&lt;/b&gt;" style="rounded=1;whiteSpace=wrap;html=1;fillColor=none;" vertex="1" parent="WIyWlLk6GJQsqaUBKTNV-1">
          <mxGeometry x="354" y="50" width="120" height="60" as="geometry" />
        </mxCell>
        <mxCell id="5vmBIqlByH16wtoZsaLm-19" value="" style="edgeStyle=orthogonalEdgeStyle;rounded=0;orthogonalLoop=1;jettySize=auto;html=1;" edge="1" parent="WIyWlLk6GJQsqaUBKTNV-1" source="5vmBIqlByH16wtoZsaLm-15" target="5vmBIqlByH16wtoZsaLm-18">
          <mxGeometry relative="1" as="geometry" />
        </mxCell>
        <mxCell id="5vmBIqlByH16wtoZsaLm-15" value="&lt;b&gt;Sum = 0&lt;/b&gt;" style="shape=parallelogram;perimeter=parallelogramPerimeter;whiteSpace=wrap;html=1;fixedSize=1;fillColor=none;rounded=1;" vertex="1" parent="WIyWlLk6GJQsqaUBKTNV-1">
          <mxGeometry x="354" y="190" width="120" height="60" as="geometry" />
        </mxCell>
        <mxCell id="5vmBIqlByH16wtoZsaLm-17" value="&lt;font style=&quot;font-size: 25px;&quot;&gt;PROBLEM 1:&lt;/font&gt;" style="text;html=1;align=center;verticalAlign=middle;whiteSpace=wrap;rounded=0;" vertex="1" parent="WIyWlLk6GJQsqaUBKTNV-1">
          <mxGeometry x="10" width="190" height="120" as="geometry" />
        </mxCell>
        <mxCell id="5vmBIqlByH16wtoZsaLm-21" value="" style="edgeStyle=orthogonalEdgeStyle;rounded=0;orthogonalLoop=1;jettySize=auto;html=1;" edge="1" parent="WIyWlLk6GJQsqaUBKTNV-1" source="5vmBIqlByH16wtoZsaLm-18" target="5vmBIqlByH16wtoZsaLm-20">
          <mxGeometry relative="1" as="geometry" />
        </mxCell>
        <mxCell id="5vmBIqlByH16wtoZsaLm-18" value="&lt;b&gt;Get a Value&lt;/b&gt;" style="rounded=1;whiteSpace=wrap;html=1;fillColor=none;" vertex="1" parent="WIyWlLk6GJQsqaUBKTNV-1">
          <mxGeometry x="354" y="330" width="120" height="60" as="geometry" />
        </mxCell>
        <mxCell id="5vmBIqlByH16wtoZsaLm-23" value="" style="edgeStyle=orthogonalEdgeStyle;rounded=0;orthogonalLoop=1;jettySize=auto;html=1;" edge="1" parent="WIyWlLk6GJQsqaUBKTNV-1" source="5vmBIqlByH16wtoZsaLm-20" target="5vmBIqlByH16wtoZsaLm-22">
          <mxGeometry relative="1" as="geometry" />
        </mxCell>
        <mxCell id="5vmBIqlByH16wtoZsaLm-20" value="&lt;b&gt;Sum = &lt;br&gt;sum + value&lt;/b&gt;" style="shape=parallelogram;perimeter=parallelogramPerimeter;whiteSpace=wrap;html=1;fixedSize=1;fillColor=none;rounded=1;" vertex="1" parent="WIyWlLk6GJQsqaUBKTNV-1">
          <mxGeometry x="354" y="470" width="120" height="60" as="geometry" />
        </mxCell>
        <mxCell id="5vmBIqlByH16wtoZsaLm-28" style="edgeStyle=orthogonalEdgeStyle;rounded=0;orthogonalLoop=1;jettySize=auto;html=1;entryX=1;entryY=0.5;entryDx=0;entryDy=0;exitX=1;exitY=0.5;exitDx=0;exitDy=0;" edge="1" parent="WIyWlLk6GJQsqaUBKTNV-1" source="5vmBIqlByH16wtoZsaLm-22" target="5vmBIqlByH16wtoZsaLm-20">
          <mxGeometry relative="1" as="geometry">
            <mxPoint x="530" y="490" as="targetPoint" />
            <Array as="points">
              <mxPoint x="530" y="655" />
              <mxPoint x="530" y="500" />
            </Array>
          </mxGeometry>
        </mxCell>
        <mxCell id="5vmBIqlByH16wtoZsaLm-29" value="Yes" style="edgeLabel;html=1;align=center;verticalAlign=middle;resizable=0;points=[];" vertex="1" connectable="0" parent="5vmBIqlByH16wtoZsaLm-28">
          <mxGeometry x="0.2381" relative="1" as="geometry">
            <mxPoint as="offset" />
          </mxGeometry>
        </mxCell>
        <mxCell id="5vmBIqlByH16wtoZsaLm-35" value="" style="edgeStyle=orthogonalEdgeStyle;rounded=0;orthogonalLoop=1;jettySize=auto;html=1;" edge="1" parent="WIyWlLk6GJQsqaUBKTNV-1" source="5vmBIqlByH16wtoZsaLm-22" target="5vmBIqlByH16wtoZsaLm-34">
          <mxGeometry relative="1" as="geometry" />
        </mxCell>
        <mxCell id="5vmBIqlByH16wtoZsaLm-36" value="No" style="edgeLabel;html=1;align=center;verticalAlign=middle;resizable=0;points=[];" vertex="1" connectable="0" parent="5vmBIqlByH16wtoZsaLm-35">
          <mxGeometry x="-0.1333" y="-2" relative="1" as="geometry">
            <mxPoint as="offset" />
          </mxGeometry>
        </mxCell>
        <mxCell id="5vmBIqlByH16wtoZsaLm-22" value="&lt;b&gt;Add more value?&lt;/b&gt;" style="rhombus;whiteSpace=wrap;html=1;fillColor=none;rounded=1;" vertex="1" parent="WIyWlLk6GJQsqaUBKTNV-1">
          <mxGeometry x="331" y="570" width="166" height="170" as="geometry" />
        </mxCell>
        <mxCell id="5vmBIqlByH16wtoZsaLm-38" value="" style="edgeStyle=orthogonalEdgeStyle;rounded=0;orthogonalLoop=1;jettySize=auto;html=1;" edge="1" parent="WIyWlLk6GJQsqaUBKTNV-1" source="5vmBIqlByH16wtoZsaLm-34" target="5vmBIqlByH16wtoZsaLm-37">
          <mxGeometry relative="1" as="geometry" />
        </mxCell>
        <mxCell id="5vmBIqlByH16wtoZsaLm-34" value="&lt;b&gt;Output of&lt;/b&gt;&lt;div&gt;&lt;b&gt;the Sum&lt;/b&gt;&lt;/div&gt;" style="shape=parallelogram;perimeter=parallelogramPerimeter;whiteSpace=wrap;html=1;fixedSize=1;fillColor=none;rounded=1;" vertex="1" parent="WIyWlLk6GJQsqaUBKTNV-1">
          <mxGeometry x="354" y="830" width="120" height="60" as="geometry" />
        </mxCell>
        <mxCell id="5vmBIqlByH16wtoZsaLm-37" value="&lt;b&gt;Stop&lt;/b&gt;" style="whiteSpace=wrap;html=1;fillColor=none;rounded=1;" vertex="1" parent="WIyWlLk6GJQsqaUBKTNV-1">
          <mxGeometry x="354" y="970" width="120" height="60" as="geometry" />
        </mxCell>
      </root>
    </mxGraphModel>
  </diagram>
</mxfile>
